<svg aria-hidden="true" style="position:absolute;width:0;height:0;overflow:hidden" xmlns="http://www.w3.org/2000/svg"><defs><symbol id="icon-shape" viewBox="0 0 19 32"><path d="M18.004 1.306a2.575 2.575 0 0 1 0 3.641L6.951 16l11.053 11.053a2.575 2.575 0 0 1-3.641 3.641L1.489 17.82a2.574 2.574 0 0 1 0-3.641L14.363 1.305a2.574 2.574 0 0 1 3.641 0z"/></symbol><symbol id="icon-github" viewBox="0 0 32 32"><path d="M16 0C7.165 0 0 7.164 0 16c0 7.069 4.584 13.067 10.943 15.183.799.148 1.057-.348 1.057-.769v-2.979c-4.451.968-5.377-1.888-5.377-1.888-.728-1.849-1.777-2.341-1.777-2.341-1.452-.993.111-.972.111-.972 1.607.112 2.452 1.649 2.452 1.649 1.427 2.445 3.743 1.739 4.656 1.329.143-1.033.557-1.74 1.016-2.139-3.553-.407-7.289-1.779-7.289-7.908 0-1.748.625-3.175 1.648-4.295-.165-.404-.713-2.032.156-4.235 0 0 1.344-.429 4.401 1.64a15.345 15.345 0 0 1 4.004-.539c1.36.007 2.729.184 4.008.539 3.055-2.069 4.396-1.64 4.396-1.64.871 2.204.323 3.832.157 4.235 1.027 1.12 1.647 2.548 1.647 4.295 0 6.145-3.743 7.499-7.305 7.895.573.496 1.097 1.469 1.097 2.963v4.391c0 .425.256.925 1.068.768 6.353-2.119 10.932-8.115 10.932-15.181 0-8.836-7.164-16-16-16z"/></symbol><symbol id="icon-telegram" viewBox="0 0 32 32"><path d="M24.512 30.372a904.93 904.93 0 0 1-7.464-5.416l-4.128 3.897a1.154 1.154 0 0 1-1.081.276 1.17 1.17 0 0 1-.804-.768c-1.009-2.973-2.945-8.82-2.945-8.82S3.947 18.228.791 17.284A1.105 1.105 0 0 1 0 16.265 1.1 1.1 0 0 1 .723 15.2C7.76 12.596 24.978 6.136 30.568 4.067c.363-.135.769-.063 1.063.187s.427.637.347 1.011c-1.055 4.953-3.865 18.736-5.024 24.181a1.546 1.546 0 0 1-.965 1.12 1.585 1.585 0 0 1-1.476-.193zM9.832 18.803l2.239 7.384.497-4.676 13.58-12.248a.37.37 0 0 0 .044-.503.379.379 0 0 0-.501-.085L9.832 18.803z"/></symbol><symbol id="icon-upwork" viewBox="0 0 32 32"><path fill="#14a800" style="fill:var(--color1, #14a800)" d="M5.891.013C2.637.013 0 2.663 0 5.932v20.136c0 3.269 2.638 5.919 5.892 5.919h20.191c3.254 0 5.892-2.65 5.892-5.919V5.932c0-3.269-2.638-5.919-5.892-5.919H5.891z"/><path fill="#fff" style="fill:var(--color2, #fff)" d="M23 19.435c-1.989 0-3.305-1.535-3.674-2.133.471-3.774 1.85-4.963 3.674-4.963 1.802 0 3.206 1.441 3.206 3.548S24.802 19.435 23 19.435zm0-9.412c-3.243 0-5.06 2.115-5.58 4.292-.591-1.109-1.026-2.592-1.369-3.971h-4.482v5.579c0 2.027-.92 3.522-2.724 3.522s-2.837-1.494-2.837-3.521l.019-5.58H3.443v5.579c0 1.629.528 3.105 1.487 4.159.99 1.086 2.343 1.659 3.913 1.659 3.119 0 5.296-2.392 5.296-5.817v-3.749c.329 1.234 1.1 3.606 2.584 5.686l-1.386 7.894h2.627l.915-5.597c.301.249.619.474.953.675a5.735 5.735 0 0 0 2.912.901h.014c.077 0 .156.004.236.004 3.216 0 5.777-2.49 5.777-5.847.001-3.359-2.558-5.87-5.773-5.87z"/></symbol><symbol id="icon-linkedin" viewBox="0 0 32 32"><path d="M25.333 0H6.666A6.668 6.668 0 0 0-.001 6.667v18.667a6.668 6.668 0 0 0 6.667 6.667h18.667A6.666 6.666 0 0 0 32 25.334V6.667A6.667 6.667 0 0 0 25.333 0zM10.667 25.333h-4V10.666h4v14.667zm-2-16.357c-1.288 0-2.333-1.053-2.333-2.352s1.045-2.352 2.333-2.352S11 5.325 11 6.624 9.956 8.976 8.667 8.976zm18 16.357h-4v-7.472c0-4.491-5.333-4.151-5.333 0v7.472h-4V10.666h4v2.353c1.861-3.448 9.333-3.703 9.333 3.301v9.012z"/></symbol></defs></svg>