<svg aria-hidden="true" style="position: absolute; width: 0; height: 0; overflow: hidden;" version="1.1"
     xmlns="http://www.w3.org/2000/svg" xmlns:xlink="http://www.w3.org/1999/xlink">
    <defs>
        <symbol id="icon-shape" viewBox="0 0 19 32">
            <path d="M18.004 1.306c1.005 1.005 1.005 2.636 0 3.641l-11.053 11.053 11.053 11.053c1.005 1.005 1.005 2.636 0 3.641s-2.636 1.005-3.641 0l-12.874-12.874c-1.006-1.005-1.006-2.636 0-3.641l12.874-12.874c1.005-1.006 2.636-1.006 3.641 0z"></path>
        </symbol>
        <symbol id="icon-github" viewBox="0 0 32 32">
            <path d="M16 0c-8.835 0-16 7.164-16 16 0 7.069 4.584 13.067 10.943 15.183 0.799 0.148 1.057-0.348 1.057-0.769v-2.979c-4.451 0.968-5.377-1.888-5.377-1.888-0.728-1.849-1.777-2.341-1.777-2.341-1.452-0.993 0.111-0.972 0.111-0.972 1.607 0.112 2.452 1.649 2.452 1.649 1.427 2.445 3.743 1.739 4.656 1.329 0.143-1.033 0.557-1.74 1.016-2.139-3.553-0.407-7.289-1.779-7.289-7.908 0-1.748 0.625-3.175 1.648-4.295-0.165-0.404-0.713-2.032 0.156-4.235 0 0 1.344-0.429 4.401 1.64 1.276-0.355 2.644-0.532 4.004-0.539 1.36 0.007 2.729 0.184 4.008 0.539 3.055-2.069 4.396-1.64 4.396-1.64 0.871 2.204 0.323 3.832 0.157 4.235 1.027 1.12 1.647 2.548 1.647 4.295 0 6.145-3.743 7.499-7.305 7.895 0.573 0.496 1.097 1.469 1.097 2.963v4.391c0 0.425 0.256 0.925 1.068 0.768 6.353-2.119 10.932-8.115 10.932-15.181 0-8.836-7.164-16-16-16z"></path>
        </symbol>
        <symbol id="icon-telegram" viewBox="0 0 32 32">
            <path d="M24.512 30.372c-2.701-1.924-7.464-5.416-7.464-5.416s-2.507 2.367-4.128 3.897c-0.287 0.271-0.697 0.376-1.081 0.276-0.385-0.101-0.677-0.395-0.804-0.768-1.009-2.973-2.945-8.82-2.945-8.82s-4.143-1.313-7.299-2.257c-0.457-0.137-0.775-0.547-0.791-1.019-0.015-0.471 0.276-0.9 0.723-1.065 7.037-2.604 24.255-9.064 29.845-11.133 0.363-0.135 0.769-0.063 1.063 0.187s0.427 0.637 0.347 1.011c-1.055 4.953-3.865 18.736-5.024 24.181-0.109 0.511-0.472 0.932-0.965 1.12-0.493 0.187-1.047 0.111-1.476-0.193zM9.832 18.803l2.239 7.384 0.497-4.676c0 0 8.649-7.801 13.58-12.248 0.144-0.131 0.164-0.349 0.044-0.503-0.119-0.153-0.337-0.189-0.501-0.085-5.715 3.649-15.859 10.128-15.859 10.128z"></path>
        </symbol>
        <symbol id="icon-upwork" viewBox="0 0 32 32">
            <path fill="#14a800" style="fill: var(--color1, #14a800)" d="M5.891 0.013c-3.254 0-5.891 2.65-5.891 5.919v20.136c0 3.269 2.638 5.919 5.892 5.919h20.191c3.254 0 5.892-2.65 5.892-5.919v-20.136c0-3.269-2.638-5.919-5.892-5.919h-20.192z"></path>
            <path fill="#fff" style="fill: var(--color2, #fff)" d="M23 19.435c-1.989 0-3.305-1.535-3.674-2.133 0.471-3.774 1.85-4.963 3.674-4.963 1.802 0 3.206 1.441 3.206 3.548s-1.404 3.548-3.206 3.548zM23 10.023c-3.243 0-5.060 2.115-5.58 4.292-0.591-1.109-1.026-2.592-1.369-3.971h-4.482v5.579c0 2.027-0.92 3.522-2.724 3.522s-2.837-1.494-2.837-3.521l0.019-5.58h-2.584v5.579c0 1.629 0.528 3.105 1.487 4.159 0.99 1.086 2.343 1.659 3.913 1.659 3.119 0 5.296-2.392 5.296-5.817v-3.749c0.329 1.234 1.1 3.606 2.584 5.686l-1.386 7.894h2.627l0.915-5.597c0.301 0.249 0.619 0.474 0.953 0.675 0.829 0.534 1.833 0.865 2.912 0.901l0.009 0h0.005c0.077 0 0.156 0.004 0.236 0.004 3.216 0 5.777-2.49 5.777-5.847 0.001-3.359-2.558-5.87-5.773-5.87z"></path>
        </symbol>
        <symbol id="icon-linkedin" viewBox="0 0 32 32">
            <path d="M25.333 0h-18.667c-3.681 0-6.667 2.985-6.667 6.667v18.667c0 3.681 2.985 6.667 6.667 6.667h18.667c3.683 0 6.667-2.985 6.667-6.667v-18.667c0-3.681-2.984-6.667-6.667-6.667zM10.667 25.333h-4v-14.667h4v14.667zM8.667 8.976c-1.288 0-2.333-1.053-2.333-2.352s1.045-2.352 2.333-2.352 2.333 1.053 2.333 2.352-1.044 2.352-2.333 2.352zM26.667 25.333h-4v-7.472c0-4.491-5.333-4.151-5.333 0v7.472h-4v-14.667h4v2.353c1.861-3.448 9.333-3.703 9.333 3.301v9.012z"></path>
        </symbol>
    </defs>
</svg>
